<?xml version="1.0" encoding="UTF-8"?><svg id="Layer_1" xmlns="http://www.w3.org/2000/svg" viewBox="0 0 41.04 77.24"><circle cx="31.54" cy="67.74" r="9.5" style="fill:#f49e1e;"/><circle cx="9.72" cy="67.74" r="9.5" style="fill:#f49e1e;"/><path d="m4.72,28.78C4.11,34.21,0,38.94,0,45.16c0,5.25,4.25,9.5,9.5,9.5s9.5-4.25,9.5-9.5c0-8.7-8.84-14.16-3.45-23.14.75-1.25,1.35-2.59,1.87-3.94,1.03-2.68,2.01-5.67,2.01-8.58C19.43,4.25,15.18,0,9.93,0S.43,4.25.43,9.5c0,2.81.67,5.67,1.47,8.35.47,1.56,1.02,3.09,1.72,4.56,1.08,2.29,1.33,4.38,1.1,6.37Z" style="fill:#f49e1e;"/></svg>